<svg xmlns="http://www.w3.org/2000/svg" width="50.053" height="50.053" viewBox="0 0 50.053 50.053"><defs><style>.a,.b{opacity:0.95;}.b{fill:#fff;}</style></defs><title>arrow up</title><g class="a" transform="translate(-3.375 -3.375)"><path class="b" d="M10.659,27.6a2.331,2.331,0,0,1,0-3.285L22.174,12.839a2.32,2.32,0,0,1,3.2-.072l11.346,11.31a2.318,2.318,0,1,1-3.273,3.285L23.7,17.76l-9.758,9.854A2.32,2.32,0,0,1,10.659,27.6Z" transform="translate(4.699 6.25)"/><path class="b" d="M28.4,53.428A25.027,25.027,0,1,0,3.375,28.4,25.023,25.023,0,0,0,28.4,53.428Zm0-3.85A21.168,21.168,0,0,1,13.434,13.434,21.168,21.168,0,1,1,43.369,43.369,20.994,20.994,0,0,1,28.4,49.578Z" transform="translate(0 0)"/></g></svg>