<svg xmlns="http://www.w3.org/2000/svg" width="35.245" height="29.995" viewBox="0 0 35.245 29.995"><defs><style>.a{fill:#efefef;}</style></defs><title>flickr</title><path class="a" d="M30.933,4.5H13.311C8.465,4.5,4.5,7.874,4.5,12V27c0,4.124,3.965,7.5,8.811,7.5H30.933c4.846,0,8.811-3.374,8.811-7.5V12C39.745,7.874,35.78,4.5,30.933,4.5ZM15.514,23.247c-2.432,0-4.406-1.679-4.406-3.749s1.973-3.749,4.406-3.749,4.406,1.679,4.406,3.749S17.946,23.247,15.514,23.247Zm13.217,0c-2.432,0-4.406-1.679-4.406-3.749s1.973-3.749,4.406-3.749,4.406,1.679,4.406,3.749S31.163,23.247,28.731,23.247Z" transform="translate(-4.5 -4.5)"/></svg>